<svg xmlns="http://www.w3.org/2000/svg" width="14.5" height="14.359" viewBox="0 0 14.5 14.359">
    <defs>
        <style>
            .cls-1{fill:#ff502f;stroke:#ff502f;stroke-width:.5px}
        </style>
    </defs>
    <path id="computer" d="M12.607 0H1.393A1.394 1.394 0 0 0 0 1.393v8.174a1.394 1.394 0 0 0 1.393 1.393h3.328l-.162 2.079H3.2a.41.41 0 1 0 0 .82h7.6a.41.41 0 1 0 0-.82H9.441l-.162-2.079h3.329A1.4 1.4 0 0 0 14 9.567V1.393A1.394 1.394 0 0 0 12.607 0zm0 10.139H1.393a.573.573 0 0 1-.573-.572v-.316h12.36v.315a.573.573 0 0 1-.573.573zM1.393.82h11.214a.573.573 0 0 1 .573.573v.315H.82v-.315A.573.573 0 0 1 1.393.82zM.82 2.528h12.36v5.9H.82zm7.8 10.51H5.382l.162-2.079h2.912zm0 0" class="cls-1" transform="translate(.25 .25)"/>
</svg>
