<svg width="35" height="72" viewBox="0 0 35 72" fill="none" xmlns="http://www.w3.org/2000/svg">
<path d="M33.74 33.9307C33.5923 33.763 33.3767 33.6665 33.1515 33.6665H25.0117C24.9846 33.5916 24.9532 33.5182 24.9115 33.4498L25.4504 32.6275C25.5154 32.6383 25.5805 32.6448 25.6456 32.6448H25.6478C26.3965 32.6254 27.0442 32.0494 27.4391 31.2494C27.6328 30.8448 27.7293 30.4301 27.7293 30.0434C27.7308 29.6057 27.5963 29.1686 27.2775 28.8835L27.7169 27.7351C27.7242 27.7351 27.7308 27.7366 27.7374 27.7366C28.157 27.7337 28.5226 27.5162 28.8107 27.2131C29.1002 26.9064 29.3239 26.496 29.4512 26.0222C29.5213 25.7594 29.555 25.4995 29.555 25.2511C29.5543 24.876 29.4797 24.5246 29.321 24.2287C29.204 24.0091 29.0293 23.814 28.8019 23.6916L29.0037 22.5806C29.3766 22.5187 29.688 22.2818 29.9162 21.9823C30.1838 21.6288 30.3636 21.1673 30.425 20.6503C30.4397 20.5272 30.4462 20.4055 30.4462 20.2882C30.4448 19.823 30.341 19.3939 30.1384 19.0462C29.9893 18.7891 29.7692 18.5659 29.4892 18.45L29.5521 17.4924C29.8847 17.3974 30.1567 17.1619 30.3505 16.8754C30.6049 16.4995 30.7577 16.0135 30.7811 15.4778C30.7833 15.4325 30.784 15.3878 30.784 15.3432C30.7833 14.8277 30.6597 14.3539 30.4309 13.9802C30.2737 13.7225 30.0485 13.5029 29.7692 13.3848V12.5064H30.6583V7.28712H18.9841C20.1554 6.606 20.9407 5.35104 20.9407 3.91464C20.9407 1.75248 19.1611 0 16.9655 0C14.7706 0 12.9902 1.75248 12.9902 3.91464C12.9902 5.35104 13.7762 6.606 14.9468 7.28712H3.27338V12.5064H4.16172V13.3848C3.88242 13.5022 3.6565 13.7225 3.4993 13.981C3.27045 14.3554 3.14689 14.8284 3.14616 15.3439C3.14616 15.3886 3.14689 15.4339 3.14908 15.4786C3.17321 16.0142 3.32529 16.4995 3.57973 16.8761C3.77348 17.1626 4.0462 17.3988 4.37813 17.4931L4.44101 18.4507C4.16098 18.5666 3.94018 18.7898 3.79103 19.0469C3.5885 19.3939 3.48468 19.8238 3.48395 20.2889C3.48395 20.4077 3.49126 20.5286 3.50515 20.651C3.56657 21.168 3.74643 21.6295 4.01402 21.983C4.24214 22.2833 4.55361 22.5202 4.92722 22.5821L5.12828 23.693C4.90163 23.8147 4.72616 24.0106 4.6099 24.2302C4.45125 24.5268 4.37594 24.8774 4.37594 25.2526C4.37594 25.5017 4.40957 25.7616 4.47976 26.0237C4.60698 26.4974 4.83071 26.9078 5.11951 27.2146C5.40758 27.5177 5.77242 27.7351 6.19283 27.738C6.19941 27.738 6.20672 27.7373 6.2133 27.7373L6.65198 28.8857C6.3332 29.1708 6.19941 29.6071 6.20014 30.0456C6.20014 30.4322 6.29738 30.847 6.49113 31.2516C6.88595 32.0501 7.53374 32.6261 8.2817 32.647C8.3475 32.647 8.4133 32.6398 8.4791 32.629L9.01795 33.4505C8.97628 33.5196 8.94484 33.593 8.91779 33.6679H0.779456C0.553533 33.6679 0.338578 33.7644 0.190887 33.9322C0.0431968 34.0999 -0.0240682 34.3231 0.00810202 34.5434L1.56616 45.3902C1.62027 45.7682 1.94928 46.0498 2.33752 46.0498H15.199V72H18.7326V46.0476H31.5934C31.9816 46.0476 32.3099 45.7661 32.3655 45.3881L33.9235 34.5413C33.9543 34.321 33.8885 34.0985 33.74 33.9307ZM20.2717 35.3815C20.2987 35.3189 20.3287 35.2584 20.3601 35.2008H21.22C21.2412 35.2102 21.2631 35.2188 21.2865 35.2246C21.3179 35.2325 21.3501 35.2361 21.3816 35.2361C21.4364 35.2361 21.489 35.2224 21.538 35.2015H21.5534C21.5402 35.2915 21.5314 35.3815 21.5307 35.4701C21.53 35.6184 21.5519 35.7674 21.5965 35.91C21.5907 35.923 21.587 35.9352 21.5812 35.9482C21.5782 35.9561 21.5738 35.9633 21.5702 35.9712L21.1732 36.1879C21.1651 36.0943 21.1249 36.0029 21.0482 35.9345C20.8895 35.7912 20.6431 35.802 20.4976 35.9582L20.0918 36.3953C20.0845 36.3398 20.0801 36.283 20.0801 36.221C20.0794 35.9712 20.1401 35.676 20.2717 35.3815ZM22.479 30.2213C22.498 30.2242 22.5177 30.2256 22.536 30.2256C22.7261 30.2256 22.8921 30.0881 22.9206 29.8973L22.9608 29.6273C23.0537 29.8037 23.118 30.0586 23.1173 30.3509C23.1173 30.4906 23.1027 30.6382 23.0741 30.7894C23.0003 31.1666 22.8416 31.4906 22.661 31.7009C22.6252 31.7426 22.5887 31.7786 22.5543 31.8103L22.615 31.5698C22.6669 31.3639 22.5404 31.1558 22.3313 31.1047C22.1229 31.0536 21.9116 31.1789 21.859 31.3841L21.7822 31.6865C21.6901 31.5094 21.6265 31.2552 21.6265 30.9636C21.6265 30.8246 21.6411 30.6763 21.6704 30.5258C21.7435 30.1478 21.9021 29.8246 22.0827 29.6136C22.1193 29.5704 22.1566 29.5344 22.1924 29.5013L22.1493 29.7871C22.1193 29.9959 22.2662 30.191 22.479 30.2213ZM22.4285 25.4729C22.4666 25.0747 22.6033 24.727 22.7722 24.5009C22.8073 24.4541 22.8424 24.4152 22.8767 24.3799L22.8592 24.6542C22.8446 24.8652 23.0076 25.0481 23.2218 25.0618C23.2306 25.0625 23.2387 25.0625 23.2474 25.0625C23.4507 25.0625 23.6225 24.907 23.6357 24.7039L23.6503 24.4908L23.651 24.4915C23.7753 24.6989 23.8638 25.0164 23.863 25.3764C23.863 25.452 23.8587 25.529 23.8514 25.6082C23.8126 26.0057 23.6759 26.3534 23.507 26.5788C23.4697 26.6292 23.4317 26.671 23.3951 26.7084L23.4331 26.4535C23.4638 26.244 23.3169 26.0489 23.1041 26.0186C22.8914 25.9877 22.6932 26.1331 22.6625 26.3426L22.6267 26.5831C22.5031 26.3758 22.4168 26.0604 22.4176 25.704C22.4161 25.6298 22.4198 25.5521 22.4285 25.4729ZM22.7912 20.3983C22.8073 19.9894 22.9301 19.6286 23.0902 19.3939C23.1136 19.3601 23.137 19.3298 23.1611 19.3018L23.1531 19.6459C23.1487 19.8576 23.3205 20.0326 23.5348 20.0369C23.5377 20.0369 23.5399 20.0369 23.5428 20.0369C23.7541 20.0369 23.9274 19.8706 23.9325 19.661L23.9391 19.3298C23.953 19.3493 23.9669 19.368 23.9808 19.3896C24.1211 19.6157 24.222 19.9642 24.2213 20.3551C24.2213 20.3882 24.2206 20.4221 24.2191 20.4566C24.203 20.8634 24.0802 21.2249 23.9201 21.4596C23.8952 21.4963 23.8696 21.528 23.844 21.5575L23.8652 21.2314C23.8799 21.0204 23.7168 20.8375 23.5026 20.8238C23.2876 20.8102 23.1019 20.9707 23.0888 21.1817L23.0661 21.5172C23.0537 21.4999 23.042 21.4834 23.0295 21.4632C22.8892 21.2371 22.7883 20.8894 22.789 20.4977C22.789 20.4674 22.7897 20.4336 22.7912 20.3983ZM22.8987 15.3972C22.9031 14.9832 23.0178 14.6153 23.1736 14.377C23.1904 14.351 23.2079 14.328 23.224 14.3057V14.6376C23.224 14.8493 23.398 15.0214 23.6137 15.0214C23.8287 15.0214 24.0034 14.85 24.0034 14.6376V14.2812C24.0254 14.31 24.0488 14.3402 24.0707 14.3755C24.2206 14.6117 24.3295 14.976 24.3281 15.3842V15.4188C24.3237 15.8278 24.2089 16.1964 24.0531 16.4347C24.0349 16.4628 24.0159 16.488 23.9976 16.5118L24.0049 16.182C24.0093 15.9703 23.8382 15.7946 23.6232 15.791C23.4083 15.7867 23.2306 15.9552 23.2262 16.1669L23.2182 16.524C23.1977 16.4966 23.1758 16.4678 23.156 16.4354C23.0061 16.1993 22.8972 15.835 22.8987 15.4267C22.8987 15.4224 22.8987 15.4123 22.8987 15.3972ZM23.3871 35.2008H23.9113C23.8981 35.2174 23.8886 35.2339 23.8755 35.2505C23.7037 35.4715 23.5019 35.64 23.3074 35.7574L23.3871 35.2008ZM25.443 30.3206C25.6448 29.8822 25.9658 29.5841 26.2305 29.448L26.1691 29.6086C26.093 29.8066 26.1954 30.0283 26.3972 30.1032C26.4425 30.1198 26.4886 30.1277 26.5346 30.1277C26.6926 30.1277 26.841 30.0326 26.8995 29.8786L26.9287 29.8015C26.9433 29.8735 26.9514 29.9534 26.9514 30.0449C26.9521 30.3026 26.8834 30.6151 26.735 30.9233C26.5522 31.3178 26.2729 31.6022 26.0258 31.7534L26.104 31.6332C26.221 31.4554 26.1691 31.2178 25.9885 31.1026C25.8079 30.9874 25.5666 31.0385 25.4504 31.2163L25.2632 31.5007C25.242 31.4158 25.2266 31.3164 25.2266 31.1998C25.2259 30.9406 25.2946 30.6288 25.443 30.3206ZM27.3155 25.47C27.4113 25.1093 27.5846 24.8047 27.7725 24.606C27.8017 24.575 27.8309 24.5477 27.8602 24.5218L27.8288 24.696C27.7915 24.9048 27.9326 25.1035 28.1446 25.141C28.1673 25.1453 28.1899 25.1474 28.2133 25.1474C28.399 25.1474 28.5628 25.0171 28.5957 24.8314L28.6381 24.601C28.72 24.7565 28.777 24.9869 28.7763 25.2526C28.7763 25.4326 28.7515 25.6284 28.6988 25.8286C28.6023 26.1893 28.429 26.4938 28.2411 26.6918C28.1782 26.7588 28.1154 26.8106 28.0554 26.8524L28.1431 26.6227C28.2192 26.4247 28.1168 26.203 27.915 26.1281C27.7132 26.0532 27.4895 26.154 27.4135 26.352L27.325 26.5838C27.2709 26.4384 27.2365 26.2534 27.2373 26.0453C27.2365 25.8653 27.2621 25.6702 27.3155 25.47ZM28.2316 20.4005C28.2769 20.0059 28.4188 19.6632 28.5891 19.4407C28.6089 19.4148 28.6286 19.3918 28.6484 19.3694L28.6301 19.6459C28.6155 19.8569 28.7792 20.0398 28.9935 20.0534C29.0022 20.0542 29.0103 20.0542 29.0191 20.0542C29.2223 20.0542 29.3941 19.8979 29.4073 19.6956L29.4285 19.3752C29.4402 19.3925 29.4519 19.4105 29.4643 19.4299C29.5835 19.6308 29.6676 19.939 29.6668 20.2882C29.6668 20.3782 29.6617 20.4696 29.6508 20.5625C29.6054 20.9563 29.4629 21.299 29.2925 21.5215C29.2516 21.5748 29.2113 21.6202 29.1704 21.6583L29.2157 21.4049C29.2538 21.1961 29.1119 20.9974 28.9006 20.9599C28.6886 20.9225 28.4868 21.0614 28.4488 21.2702L28.4049 21.51C28.2923 21.3091 28.2133 21.0118 28.2141 20.6748C28.2155 20.5862 28.2206 20.4948 28.2316 20.4005ZM28.5753 15.3864C28.5913 14.9782 28.7142 14.6167 28.875 14.3827C28.913 14.3273 28.9511 14.2805 28.9898 14.2409V14.6383C28.9898 14.85 29.1638 15.0221 29.3795 15.0221C29.5945 15.0221 29.7685 14.8507 29.7685 14.6383V14.3863C29.9067 14.6124 30.0061 14.9566 30.0046 15.3439C30.0046 15.3778 30.0039 15.4123 30.0024 15.4462C29.9864 15.8544 29.8635 16.2151 29.7027 16.4498C29.6734 16.493 29.6434 16.5298 29.6135 16.5636L29.6354 16.2238C29.65 16.0128 29.487 15.8299 29.272 15.817C29.0578 15.8026 28.8721 15.9631 28.8589 16.1748L28.8377 16.4909C28.8297 16.4786 28.8216 16.4671 28.8129 16.4542C28.6725 16.2288 28.5716 15.881 28.5731 15.4901C28.5731 15.4584 28.5738 15.4246 28.5753 15.3893V15.3864ZM28.9898 13.3488C28.6732 13.4496 28.4137 13.68 28.2272 13.9565C27.9728 14.3323 27.8207 14.8176 27.7966 15.3533C27.7944 15.3979 27.7937 15.4433 27.7937 15.4886C27.7944 16.0042 27.918 16.4772 28.1468 16.8516C28.2974 17.0993 28.5116 17.3117 28.7749 17.4326L28.7098 18.4234C28.4115 18.5191 28.1585 18.7265 27.9648 18.9806C27.6972 19.3342 27.518 19.795 27.4566 20.3126C27.442 20.435 27.4354 20.5567 27.4354 20.6748C27.4361 21.1399 27.54 21.569 27.7425 21.9168C27.8631 22.1249 28.0313 22.3085 28.2382 22.433L28.0284 23.5879C27.711 23.6549 27.4317 23.8406 27.2014 24.0833C26.9119 24.39 26.6889 24.8004 26.561 25.2742C26.4908 25.5362 26.4571 25.7962 26.4571 26.0453C26.4579 26.4204 26.5324 26.771 26.6911 27.0677C26.7671 27.211 26.868 27.3427 26.9916 27.4514L26.5551 28.5984C26.5463 28.5984 26.5383 28.597 26.5295 28.597C25.7816 28.6171 25.133 29.1924 24.7382 29.9923C24.5445 30.3962 24.448 30.811 24.448 31.1983C24.4465 31.577 24.5481 31.955 24.7806 32.2351L24.301 32.9666C24.1738 32.9263 24.0422 32.9069 23.9113 32.9069C23.3593 32.9148 22.8095 33.1999 22.354 33.6658H22.0834L22.3152 32.7506C22.691 32.7024 23.0105 32.4828 23.2577 32.1941C23.5377 31.865 23.7424 31.4294 23.8396 30.9341C23.8784 30.7361 23.8967 30.5402 23.8967 30.3516C23.8959 29.9347 23.8089 29.5481 23.6298 29.227C23.5077 29.0059 23.3286 28.8115 23.1012 28.6884L23.2577 27.6336C23.6174 27.5616 23.9179 27.3269 24.1365 27.031C24.4004 26.6717 24.5744 26.2044 24.6264 25.6817C24.6366 25.578 24.6417 25.4765 24.6417 25.3764C24.641 24.8983 24.5328 24.4584 24.3229 24.1042C24.1796 23.8608 23.9727 23.6506 23.7139 23.5296L23.7819 22.5007C24.1087 22.4042 24.377 22.1695 24.5679 21.8858C24.8223 21.5093 24.9744 21.0233 24.9978 20.4876C25 20.443 25.0007 20.399 25.0007 20.3551C25 19.8389 24.8764 19.3651 24.6468 18.9914C24.4852 18.725 24.2506 18.499 23.9603 18.3845L23.9793 17.46C24.2849 17.3513 24.535 17.1202 24.7112 16.8466C24.959 16.4606 25.1001 15.966 25.1082 15.4231V15.3835C25.1074 14.8471 24.9751 14.3554 24.7346 13.9709C24.562 13.6937 24.3127 13.4597 24.0049 13.3495V12.5064H28.9905V13.3488H28.9898ZM18.7326 12.5064H23.2248V13.361C22.9301 13.4734 22.6888 13.698 22.517 13.9644C22.2684 14.3503 22.128 14.845 22.12 15.3878C22.12 15.3958 22.1193 15.4087 22.1193 15.4274C22.1207 15.9638 22.2531 16.4556 22.4936 16.8401C22.661 17.1094 22.9031 17.3376 23.1992 17.4514L23.1809 18.3694C22.876 18.4745 22.6245 18.6991 22.4432 18.9684C22.1887 19.3442 22.0367 19.8302 22.0133 20.3666C22.0118 20.4091 22.0103 20.4538 22.0103 20.4991C22.0111 21.0154 22.1346 21.4884 22.3635 21.8635C22.517 22.1148 22.7356 22.3294 23.0047 22.4489L22.9367 23.4662C22.6135 23.5562 22.343 23.7773 22.1419 24.0502C21.878 24.4094 21.704 24.8767 21.6521 25.4002C21.6418 25.5024 21.6367 25.6046 21.6367 25.7054C21.6375 26.1828 21.7457 26.6227 21.9555 26.9777C22.0842 27.1966 22.264 27.3902 22.4878 27.5155L22.3291 28.5833C21.9972 28.6546 21.7106 28.8583 21.4861 29.1211C21.2061 29.4509 21.0028 29.8858 20.9048 30.3818C20.8668 30.5791 20.8478 30.775 20.8478 30.9643C20.8486 31.3812 20.9363 31.7678 21.1147 32.0882C21.2214 32.2805 21.3706 32.4533 21.557 32.5757L21.2887 33.6334C21.2105 33.6384 21.1337 33.6506 21.0584 33.6672H18.7326V12.5064ZM19.5091 35.2008C19.3724 35.5457 19.3015 35.8927 19.3015 36.2203C19.3015 36.5119 19.3541 36.7898 19.4747 37.0346C19.4777 37.0404 19.4806 37.0447 19.4828 37.0498L19.368 37.1736C19.3212 37.2074 19.2824 37.2485 19.2554 37.2953L18.7334 37.8576V35.2008H19.5091ZM14.4226 35.2008H15.199V37.859L14.677 37.2967C14.6492 37.2492 14.6112 37.2074 14.5629 37.1743L14.4474 37.0498C14.4496 37.0447 14.4533 37.0397 14.4555 37.0346C14.5761 36.7891 14.6295 36.5112 14.6295 36.2196C14.6295 35.8934 14.5585 35.5457 14.4226 35.2008ZM13.66 35.3822C13.7916 35.676 13.8515 35.9712 13.8508 36.2203C13.8508 36.2822 13.8464 36.3398 13.8391 36.3946L13.4333 35.9575C13.2885 35.8013 13.0422 35.7905 12.8835 35.933C12.8075 36.0014 12.7665 36.0929 12.7592 36.1865L12.3622 35.9698C12.3585 35.9618 12.3549 35.9546 12.3512 35.9467C12.3454 35.933 12.3417 35.9208 12.3359 35.9078C12.3797 35.7653 12.4017 35.617 12.4009 35.4686C12.4009 35.3801 12.3914 35.2901 12.379 35.2001H12.3944C12.4434 35.2217 12.496 35.2354 12.5508 35.2354C12.5815 35.2354 12.6137 35.2318 12.6451 35.2238C12.6685 35.2181 12.6905 35.2094 12.7117 35.2001H13.5715C13.6029 35.2584 13.6329 35.3189 13.66 35.3822ZM10.5424 35.2008L10.6221 35.7566C10.4269 35.6386 10.2265 35.4708 10.0547 35.2498C10.0416 35.2339 10.032 35.2166 10.0196 35.2001H10.5424V35.2008ZM11.3159 31.5698L11.3773 31.811C11.3415 31.7786 11.3057 31.7434 11.2699 31.7009C11.0885 31.4906 10.9299 31.1674 10.8575 30.7894C10.8275 30.6382 10.8144 30.4898 10.8144 30.3509C10.8136 30.0571 10.8772 29.8022 10.9701 29.6258L11.0103 29.8966C11.0388 30.0874 11.2055 30.2249 11.3949 30.2249C11.4139 30.2249 11.4329 30.2234 11.4519 30.2206C11.6647 30.1903 11.8124 29.9952 11.7809 29.7857L11.7385 29.5006C11.7751 29.533 11.8116 29.5697 11.8482 29.6129C12.0288 29.8231 12.1882 30.1464 12.2606 30.5244C12.2898 30.6749 12.3037 30.8225 12.3037 30.9622C12.3044 31.2538 12.2401 31.5079 12.1487 31.6843L12.0719 31.3826C12.02 31.1767 11.8087 31.0522 11.5996 31.1033C11.3912 31.1558 11.264 31.3646 11.3159 31.5698ZM10.4992 26.4542L10.5373 26.7091C10.5 26.6717 10.462 26.6299 10.4247 26.5788C10.2565 26.3534 10.1191 26.0057 10.081 25.6075C10.073 25.5283 10.0693 25.4513 10.0693 25.3764C10.0686 25.0171 10.1571 24.6989 10.2814 24.4915C10.2814 24.4908 10.2821 24.4908 10.2821 24.4901L10.2967 24.7039C10.3106 24.907 10.481 25.0625 10.685 25.0625C10.6937 25.0625 10.7018 25.0625 10.7105 25.0618C10.9248 25.0481 11.0878 24.8652 11.0739 24.6542L11.0556 24.3799C11.0907 24.4152 11.1251 24.4548 11.1602 24.5009C11.3276 24.7262 11.4658 25.074 11.5038 25.4729C11.5119 25.5506 11.5148 25.6277 11.5148 25.704C11.5155 26.0604 11.4293 26.3758 11.3057 26.5831L11.2699 26.3434C11.2392 26.1338 11.0418 25.9884 10.8283 26.0194C10.6155 26.0503 10.4678 26.2447 10.4992 26.4542ZM10.0862 21.5582C10.0606 21.5287 10.0357 21.497 10.0101 21.4603C9.84999 21.2256 9.72716 20.8649 9.71108 20.4559C9.70961 20.4214 9.70888 20.3882 9.70888 20.3558C9.70815 19.9642 9.80832 19.6157 9.94943 19.3896C9.96332 19.368 9.97721 19.3486 9.9911 19.3291L9.99768 19.661C10.0021 19.8706 10.1761 20.0369 10.3874 20.0369C10.3896 20.0369 10.3925 20.0369 10.3954 20.0369C10.6104 20.0326 10.7815 19.8569 10.7771 19.6459L10.7698 19.3018C10.7932 19.3298 10.8158 19.3601 10.84 19.3939C11.0001 19.6279 11.1229 19.9894 11.1397 20.3983C11.1405 20.4322 11.1412 20.4653 11.1412 20.4991C11.1419 20.8901 11.041 21.2386 10.8999 21.4646C10.8882 21.4841 10.8758 21.5006 10.8641 21.5179L10.8422 21.1824C10.8275 20.9714 10.6426 20.8109 10.4283 20.8246C10.2134 20.839 10.0503 21.0211 10.0649 21.2321L10.0862 21.5582ZM9.93334 16.5132C9.91507 16.4894 9.89606 16.4635 9.87705 16.4354C9.72131 16.1971 9.60652 15.8292 9.60287 15.4152C9.60287 15.4015 9.60287 15.3914 9.60287 15.385C9.60214 14.9767 9.70961 14.6124 9.86023 14.3762C9.8829 14.341 9.90556 14.31 9.92823 14.2812V14.6383C9.92823 14.8493 10.103 15.0214 10.3179 15.0214C10.5329 15.0214 10.7076 14.8493 10.7076 14.6383V14.3064C10.7244 14.3287 10.7413 14.351 10.7581 14.377C10.9138 14.616 11.0286 14.9839 11.033 15.3979V15.4274C11.0337 15.8357 10.9262 16.2 10.7756 16.4362C10.7551 16.4686 10.7339 16.4974 10.7135 16.5247L10.7062 16.1669C10.7018 15.9552 10.5241 15.7874 10.3092 15.7918C10.0942 15.7961 9.92311 15.9718 9.9275 16.1827L9.93334 16.5132ZM13.0253 30.3804C12.9281 29.8843 12.7241 29.4494 12.4441 29.1197C12.2189 28.8569 11.933 28.6531 11.6018 28.5818L11.4432 27.5141C11.6661 27.3895 11.846 27.1958 11.9747 26.9762C12.1845 26.622 12.2927 26.1814 12.2935 25.704C12.2935 25.6039 12.2891 25.5024 12.2781 25.3994C12.2262 24.8767 12.0529 24.4087 11.7882 24.0494C11.5872 23.7773 11.3167 23.5555 10.9935 23.4655L10.9262 22.4482C11.1953 22.3279 11.4139 22.1134 11.5667 21.8628C11.7963 21.4884 11.9191 21.0154 11.9206 20.4991C11.9206 20.4552 11.9199 20.4113 11.9184 20.3674C11.895 19.831 11.7422 19.345 11.4885 18.9691C11.3064 18.6998 11.0556 18.4752 10.7508 18.3701L10.7318 17.4514C11.0293 17.3376 11.2691 17.1094 11.4366 16.8408C11.6778 16.4556 11.8095 15.9646 11.8109 15.4282C11.8109 15.4145 11.8109 15.4022 11.8109 15.3914V15.3893C11.8029 14.8471 11.6618 14.3518 11.4139 13.9658C11.2428 13.6994 11.0015 13.4748 10.7069 13.3625V12.5064H15.1998V33.6665H12.8725C12.7972 33.6499 12.7212 33.6377 12.6437 33.6326L12.3754 32.575C12.5618 32.4526 12.7109 32.2798 12.817 32.0875C12.9954 31.7671 13.0831 31.3805 13.0838 30.9636C13.0831 30.7735 13.0641 30.5784 13.0253 30.3804ZM4.29478 16.2238L4.31672 16.5636C4.28674 16.5298 4.25676 16.493 4.22679 16.4498C4.06667 16.2158 3.94384 15.8544 3.92702 15.4462C3.92629 15.4116 3.92483 15.377 3.92483 15.3439C3.92409 14.9558 4.0228 14.611 4.16172 14.3849V14.6383C4.16172 14.85 4.33573 15.0214 4.55068 15.0214C4.76564 15.0214 4.94038 14.85 4.94038 14.6383V14.2416C4.9784 14.2812 5.01642 14.328 5.05517 14.3834C5.21529 14.6174 5.33812 14.9789 5.35567 15.3871C5.3564 15.421 5.35713 15.4555 5.35713 15.4894C5.35786 15.8803 5.2577 16.2281 5.11659 16.4542C5.10854 16.4671 5.1005 16.4779 5.09173 16.4894L5.07125 16.1741C5.05736 15.9624 4.87165 15.8018 4.65743 15.8155C4.4432 15.8292 4.28016 16.0121 4.29478 16.2238ZM5.02958 20.9599C4.81755 20.9974 4.67717 21.1961 4.71446 21.4049L4.76052 21.659C4.71958 21.6209 4.67863 21.5755 4.63769 21.5222C4.4666 21.2998 4.32549 20.957 4.27943 20.5625C4.26846 20.4696 4.26334 20.3774 4.26334 20.2882C4.26261 19.939 4.34669 19.6315 4.46587 19.4299C4.4783 19.4098 4.49 19.3918 4.50243 19.3745L4.52363 19.6956C4.53679 19.8986 4.70788 20.0549 4.91187 20.0549C4.92064 20.0549 4.92868 20.0549 4.93746 20.0542C5.15168 20.0405 5.31472 19.8583 5.30083 19.6466L5.28255 19.3709C5.30156 19.3925 5.32131 19.4155 5.34105 19.4414C5.51213 19.6639 5.65397 20.0074 5.70004 20.4012C5.711 20.4941 5.71539 20.5855 5.71539 20.6748C5.71612 21.0118 5.63789 21.3091 5.52529 21.51L5.48143 21.2702C5.44341 21.0622 5.24161 20.9232 5.02958 20.9599ZM6.60592 26.5831L6.51818 26.352C6.44214 26.154 6.21768 26.0532 6.01589 26.1281C5.81409 26.203 5.71247 26.424 5.7885 26.6227L5.87624 26.8531C5.81556 26.8114 5.75341 26.7595 5.69053 26.6926C5.5019 26.4946 5.32862 26.19 5.23284 25.8286C5.17946 25.6291 5.15461 25.4326 5.15461 25.2526C5.15461 24.9862 5.2109 24.7565 5.29279 24.6002L5.33447 24.8314C5.3681 25.0171 5.53261 25.1474 5.71758 25.1474C5.74025 25.1474 5.76291 25.1453 5.78631 25.141C5.99834 25.1035 6.13872 24.9048 6.10143 24.696L6.06999 24.521C6.09924 24.547 6.12849 24.5736 6.15773 24.6053C6.34563 24.804 6.51965 25.1086 6.61543 25.47C6.6688 25.6694 6.69293 25.8653 6.69293 26.0453C6.69439 26.2526 6.66002 26.4377 6.60592 26.5831ZM8.66701 31.5L8.4813 31.2156C8.36505 31.0378 8.12377 30.9866 7.94318 31.1018C7.76259 31.217 7.71067 31.4539 7.82766 31.6325L7.90735 31.7534C7.65949 31.6022 7.37947 31.3178 7.19668 30.9226C7.04826 30.6144 6.98026 30.3026 6.98026 30.0442C6.98026 29.9534 6.98904 29.8728 7.00293 29.8008L7.03291 29.8786C7.0914 30.0326 7.23982 30.1277 7.39775 30.1277C7.44308 30.1277 7.48914 30.1198 7.5352 30.1025C7.73626 30.0283 7.83862 29.8073 7.76259 29.6086L7.70044 29.448C7.96511 29.5841 8.28535 29.8829 8.48861 30.3206C8.6363 30.6281 8.7043 30.9398 8.7043 31.1983C8.70356 31.3157 8.68967 31.4143 8.66701 31.5ZM7.36923 25.2749C7.24128 24.8011 7.01755 24.3907 6.72875 24.084C6.49917 23.8414 6.21915 23.6563 5.90183 23.5886L5.69272 22.4338C5.89964 22.3085 6.06707 22.1249 6.18771 21.9168C6.39023 21.5698 6.49406 21.1399 6.49479 20.6748C6.49479 20.5567 6.48748 20.4358 6.47358 20.3134C6.41217 19.7957 6.23231 19.3342 5.96471 18.9806C5.77169 18.7272 5.51944 18.5191 5.22041 18.4234L5.15461 17.4319C5.41855 17.311 5.63204 17.0986 5.78266 16.8509C6.0115 16.4765 6.13507 16.0034 6.13653 15.4879C6.13653 15.444 6.1358 15.3994 6.1336 15.354C6.10948 14.8176 5.95667 14.3323 5.70296 13.9558C5.51652 13.68 5.25696 13.4496 4.94111 13.3488V12.5064H9.9275V13.3495C9.62042 13.459 9.37037 13.6944 9.19709 13.9716C8.95581 14.3568 8.8242 14.8478 8.82347 15.3842C8.82347 15.4008 8.82347 15.4138 8.82347 15.4238C8.83078 15.966 8.97189 16.4606 9.21975 16.8466C9.39596 17.1209 9.64601 17.3513 9.95235 17.4607L9.97136 18.3845C9.68037 18.499 9.44567 18.725 9.28336 18.9914C9.05451 19.3658 8.93095 19.8396 8.92949 20.3558C8.92949 20.4005 8.93022 20.4444 8.93241 20.4883C8.95581 21.024 9.10789 21.51 9.36159 21.8858C9.55242 22.1695 9.82075 22.4042 10.1483 22.5007L10.2163 23.5289C9.95747 23.6498 9.74983 23.8601 9.60725 24.1042C9.39815 24.4584 9.28994 24.8983 9.28848 25.3764C9.28848 25.4772 9.2936 25.5787 9.30383 25.6817C9.35574 26.2044 9.52829 26.6717 9.79296 27.031C10.0116 27.3269 10.3113 27.5616 10.6725 27.6336L10.829 28.6877C10.6016 28.8108 10.4217 29.0052 10.2996 29.2262C10.1205 29.5474 10.0335 29.934 10.0328 30.3509C10.0328 30.5402 10.0518 30.7354 10.0898 30.9334C10.187 31.4294 10.3918 31.8643 10.6711 32.1934C10.9182 32.4828 11.2384 32.7031 11.6142 32.7499L11.8467 33.665H11.5755C11.1193 33.1992 10.5702 32.9141 10.0182 32.9062C9.88801 32.9062 9.75568 32.9249 9.62846 32.9659L9.14883 32.2344C9.38206 31.9543 9.48296 31.5763 9.48223 31.1976C9.48223 30.811 9.38499 30.3962 9.19124 29.9916C8.79569 29.1917 8.14863 28.6157 7.39994 28.5962C7.39117 28.5962 7.38312 28.597 7.37435 28.597L6.9364 27.45C7.05923 27.3413 7.16086 27.2095 7.2369 27.0662C7.39555 26.7696 7.47013 26.419 7.47086 26.0438C7.47232 25.7969 7.43869 25.537 7.36923 25.2749ZM3.01382 44.5133L1.67584 35.2008H5.2438L6.58179 44.5133H3.01382ZM8.15667 44.5133L6.81868 35.2008H9.10642C9.19708 35.3794 9.30822 35.555 9.44129 35.7235C9.81417 36.185 10.2719 36.5162 10.7515 36.6538L11.8804 44.5133H8.15667ZM13.4545 44.5133L12.4185 37.3046C12.7139 37.5437 13.0539 37.6898 13.4216 37.6999C13.5503 37.6999 13.6804 37.6776 13.8055 37.6322L14.065 37.7741L14.4781 38.219H14.0943C13.8793 38.219 13.7046 38.3904 13.7046 38.6021C13.7046 38.8145 13.8793 38.9858 14.0943 38.9858H15.191L15.199 38.9945V44.5126H13.4545V44.5133ZM18.7326 44.5133V38.9952L18.7399 38.9866H19.8367C20.0516 38.9866 20.2256 38.8152 20.2256 38.6028C20.2256 38.3911 20.0516 38.2198 19.8367 38.2198H19.4528L19.8652 37.7748L20.1255 37.6337C20.2497 37.6783 20.3799 37.7006 20.5064 37.7006H20.5086C20.8763 37.6898 21.2156 37.5444 21.511 37.3054L20.4757 44.514H18.7326V44.5133ZM25.7743 44.5133H22.0498L23.1787 36.6538C23.6576 36.5162 24.1153 36.1843 24.4889 35.7235C24.622 35.555 24.7331 35.3786 24.8245 35.2001H27.1122L25.7743 44.5133ZM30.9164 44.5133H27.3484L28.6857 35.2008H32.2544L30.9164 44.5133Z" fill="#004D61"/>
</svg>
