<svg width="84" height="36" viewBox="0 0 84 36" fill="none" xmlns="http://www.w3.org/2000/svg">
<path d="M71.3 4.17391V3.92391H71.05H64.4C63.7673 3.92391 63.3114 3.69055 63.0113 3.35507C62.7073 3.0151 62.55 2.55501 62.55 2.08696C62.55 1.61891 62.7073 1.15881 63.0113 0.818842C63.3114 0.48336 63.7673 0.25 64.4 0.25H73.15H81.9C82.5327 0.25 82.9886 0.48336 83.2887 0.818842C83.5927 1.15881 83.75 1.61891 83.75 2.08696C83.75 2.55501 83.5927 3.0151 83.2887 3.35507C82.9886 3.69055 82.5327 3.92391 81.9 3.92391H75.25H75V4.17391V9.73913V9.98913H75.25H77.525C78.1577 9.98913 78.6136 10.2225 78.9137 10.558C79.2177 10.8979 79.375 11.358 79.375 11.8261C79.375 12.2941 79.2177 12.7542 78.9137 13.0942C78.6136 13.4297 78.1577 13.663 77.525 13.663H58.45H58.2771L58.2161 13.8248C57.7165 15.1487 56.5391 16.3256 55.3515 17L55.0117 17.193L55.3294 17.4206L62.8544 22.8119L62.8543 22.8121L62.8619 22.8171C63.3294 23.1268 63.625 23.576 63.625 24.1739V33.913C63.625 34.5403 63.3908 34.9927 63.0532 35.2909C62.7109 35.5933 62.2472 35.75 61.775 35.75C61.3028 35.75 60.8391 35.5933 60.4968 35.2909C60.1592 34.9927 59.925 34.5403 59.925 33.913V25.2174V25.0859L59.8167 25.0114L52.9917 20.3158L52.7393 20.1421L52.6198 20.4242L51.2198 23.7286L51.2123 23.7464L51.2076 23.7651C51.1404 24.0319 50.9313 24.2887 50.6181 24.4833C50.307 24.6765 49.9151 24.7935 49.525 24.7935H34.475C34.0849 24.7935 33.693 24.6765 33.3819 24.4833C33.0687 24.2887 32.8596 24.0319 32.7924 23.7651L32.7877 23.7464L32.7802 23.7286L31.3802 20.4242L31.2607 20.1421L31.0083 20.3158L24.1833 25.0114L24.075 25.0859V25.2174V33.913C24.075 34.5403 23.8408 34.9927 23.5032 35.2909C23.1609 35.5933 22.6972 35.75 22.225 35.75C21.7528 35.75 21.2891 35.5933 20.9468 35.2909C20.6092 34.9927 20.375 34.5403 20.375 33.913V24.1739C20.375 23.576 20.6706 23.1268 21.1381 22.8171L21.1382 22.8172L21.1456 22.8119L28.6706 17.4206L28.9883 17.193L28.6485 17C27.4609 16.3256 26.2835 15.1487 25.7839 13.8248L25.7229 13.663H25.55H6.475C5.8423 13.663 5.38641 13.4297 5.08634 13.0942C4.78226 12.7542 4.625 12.2941 4.625 11.8261C4.625 11.358 4.78226 10.8979 5.08634 10.558C5.38641 10.2225 5.8423 9.98913 6.475 9.98913H8.75H9V9.73913V4.17391V3.92391H8.75H2.1C1.4673 3.92391 1.01141 3.69055 0.711337 3.35507C0.407256 3.0151 0.25 2.55501 0.25 2.08696C0.25 1.61891 0.407256 1.15881 0.711337 0.818842C1.01141 0.48336 1.4673 0.25 2.1 0.25H10.85H19.6C20.2327 0.25 20.6886 0.48336 20.9887 0.818842C21.2927 1.15881 21.45 1.61891 21.45 2.08696C21.45 2.55501 21.2927 3.0151 20.9887 3.35507C20.6886 3.69055 20.2327 3.92391 19.6 3.92391H12.95H12.7V4.17391V9.73913V9.98913H12.95H25.025H25.275V9.73913V6.6087C25.275 3.09606 28.1366 0.25 31.675 0.25H52.325C55.8634 0.25 58.725 3.09606 58.725 6.6087V9.73913V9.98913H58.975H71.05H71.3V9.73913V4.17391ZM48.125 21.2935H48.2956L48.3578 21.1346L49.5828 18.0041L49.7163 17.663H49.35H34.65H34.2837L34.4172 18.0041L35.6422 21.1346L35.7044 21.2935H35.875H48.125ZM52.325 13.9891C53.8616 13.9891 55.025 12.8352 55.025 11.3043V6.6087C55.025 5.07785 53.8616 3.92391 52.325 3.92391H31.675C30.1384 3.92391 28.975 5.07785 28.975 6.6087V11.3043C28.975 12.8352 30.1384 13.9891 31.675 13.9891H52.325Z" fill="#004D61" stroke="white" stroke-width="0.5"/>
</svg>
