<svg width="96" height="58" viewBox="0 0 96 58" fill="none" xmlns="http://www.w3.org/2000/svg">
<path d="M94.5 10.4H89.4L85.9 8.20003C85.7 8.10003 85.5 8.00002 85.3 7.90002V5.90002C85.3 5.10002 84.6 4.40002 83.8 4.40002C83 4.40002 82.3 5.10002 82.3 5.90002V7.80002C82.1 7.90002 81.9 8.00003 81.7 8.10003L77.8 10.4H73.2C72.4 10.4 71.7 11.1 71.7 11.9C71.7 12.7 72.4 13.4 73.2 13.4H78.2H82.3V49L77.1 54.7C76.5 55.3 76.6 56.3 77.2 56.8C77.5 57.1 77.9 57.2 78.2 57.2C78.6 57.2 79 57 79.3 56.7L83.8 51.8L88.3 56.7C88.9 57.3 89.8 57.3 90.4 56.8C91 56.2 91 55.3 90.5 54.7L85.3 49V13.4H94.5C95.3 13.4 96 12.7 96 11.9C96 11.1 95.3 10.4 94.5 10.4Z" fill="#004D61"/>
<path d="M78.8 32.9V25.4C78.8 23.2 77 21.3 74.7 21.3H73.4C73.1 20.9 72.7 20.6 72.2 20.6C71.7 20.6 71.2 20.9 71 21.3H61.3C61.2 21.3 61.1 21.3 61.1 21.3C60.3 20.7 59.5 20.2 58.7 19.7V15.5H61.9C62.1 16.1 62.7 16.5 63.3 16.5C63.9 16.5 64.5 16.1 64.7 15.5H65.3C67.2 15.5 68.8 13.9 68.8 12V5.29999C68.8 3.39999 67.2 1.79999 65.3 1.79999H64.7C64.5 1.19999 63.9 0.799988 63.3 0.799988C62.7 0.799988 62.1 1.19999 61.9 1.79999H56.6C54.7 1.79999 53.1 3.39999 53.1 5.29999V12C53.1 13.6 54.2 14.9 55.7 15.4V18.5C53.9 17.9 52.1 17.6 50.1 17.6C48.1 17.6 46.2 17.9 44.4 18.6V15.5C46 15.1 47.1 13.8 47.1 12.1V5.39999C47.1 3.49999 45.5 1.89999 43.6 1.89999H38.3C38.1 1.29999 37.5 0.899988 36.9 0.899988C36.3 0.899988 35.7 1.29999 35.5 1.89999H34.9C33 1.89999 31.4 3.49999 31.4 5.39999V12C31.4 13.9 33 15.5 34.9 15.5H35.5C35.7 16.1 36.3 16.5 36.9 16.5C37.5 16.5 38.1 16.1 38.3 15.5H41.4V19.8C39.4 20.9 37.7 22.4 36.2 24.1H27C26.8 23.5 26.2 23.1 25.6 23.1C25 23.1 24.4 23.5 24.2 24.1H23C20.8 24.1 18.9 25.9 18.9 28.2V42.8C18.9 45 20.7 46.9 23 46.9H24.4L21.4 55.2C21.1 56 21.5 56.8 22.3 57.1C22.5 57.2 22.6 57.2 22.8 57.2C23.4 57.2 24 56.8 24.2 56.2L27.5 46.9H29.8V55.7C29.8 56.5 30.5 57.2 31.3 57.2C32.1 57.2 32.8 56.5 32.8 55.7V46.9H35.6C35.7 46.9 35.8 46.9 35.9 46.9C36.9 48.1 38 49.2 39.2 50.1L37.4 55.2C37.1 56 37.5 56.8 38.3 57.1C38.5 57.2 38.6 57.2 38.8 57.2C39.4 57.2 40 56.8 40.2 56.2L41.8 51.7C44.3 53 47 53.7 50 53.7C53 53.7 55.7 53 58.2 51.7L59.8 56.2C60 56.8 60.6 57.2 61.2 57.2C61.4 57.2 61.5 57.2 61.7 57.1C62.5 56.8 62.9 56 62.6 55.2L60.8 50C64.8 47 67.6 42.3 68 36.9H71C71.3 37.3 71.7 37.6 72.2 37.6C72.7 37.6 73.2 37.3 73.4 36.9H74.7C77 37 78.8 35.2 78.8 32.9ZM65.7 5.29999V12C65.7 12.3 65.5 12.5 65.2 12.5H64.7V4.79999H65.2C65.5 4.79999 65.7 4.99999 65.7 5.29999ZM56 5.29999C56 4.99999 56.2 4.79999 56.5 4.79999H61.7V12.5H56.5C56.2 12.5 56 12.3 56 12V5.29999ZM44 5.29999V12C44 12.3 43.8 12.5 43.5 12.5H38.3V4.79999H43.5C43.8 4.79999 44 4.99999 44 5.29999ZM34.4 12V5.29999C34.4 4.99999 34.6 4.79999 34.9 4.79999H35.4V12.5H34.9C34.6 12.5 34.4 12.3 34.4 12ZM75.8 25.4V32.9C75.8 33.5 75.3 34 74.7 34H73.6V24.3H74.7C75.4 24.3 75.8 24.8 75.8 25.4ZM64.1 24.3H70.7V34H68C67.7 30.3 66.3 27 64.1 24.3ZM21.9 42.8V28.2C21.9 27.6 22.4 27.1 23 27.1H24.1V43.9H23C22.4 43.9 21.9 43.4 21.9 42.8ZM27.1 43.9V27.1H34.1C32.7 29.6 32 32.5 32 35.6C32 38.6 32.7 41.4 34 43.9H27.1ZM50 50.7C41.7 50.7 34.9 43.9 34.9 35.6C34.9 27.3 41.7 20.6 50 20.6C58.3 20.6 65.1 27.4 65.1 35.7C65.1 44 58.3 50.7 50 50.7Z" fill="#004D61"/>
<path d="M13.6 49V13.4H22.8C23.6 13.4 24.3 12.7 24.3 11.9C24.3 11.1 23.6 10.4 22.8 10.4H17.7L14.2 8.20003C14 8.10003 13.8 8.00002 13.6 7.90002V5.90002C13.6 5.10002 12.9 4.40002 12.1 4.40002C11.3 4.40002 10.6 5.10002 10.6 5.90002V7.80002C10.4 7.90002 10.2 8.00003 10 8.10003L6.1 10.4H1.5C0.7 10.4 0 11.1 0 11.9C0 12.7 0.7 13.4 1.5 13.4H6.5H10.6V49L5.4 54.7C4.8 55.3 4.9 56.3 5.5 56.8C5.8 57.1 6.2 57.2 6.5 57.2C6.9 57.2 7.3 57 7.6 56.7L12.1 51.8L16.6 56.7C17.2 57.3 18.1 57.3 18.7 56.8C19.3 56.2 19.3 55.3 18.8 54.7L13.6 49Z" fill="#004D61"/>
<path d="M55.5 27.3C54.7 27.1 53.9 27.5 53.6 28.3L51.7 34.4H46.1L43.6 42C43.3 42.8 43.8 43.6 44.5 43.9C44.7 44 44.8 44 45 44C45.6 44 46.2 43.6 46.4 43L48.2 37.5H54L56.5 29.3C56.7 28.4 56.3 27.6 55.5 27.3Z" fill="#004D61"/>
</svg>
