<svg width="80" height="47" viewBox="0 0 80 47" fill="none" xmlns="http://www.w3.org/2000/svg">
<path d="M63.6565 17.2996C65.3319 17.2996 66.6867 15.899 66.6867 14.1871C66.6867 12.4752 65.331 11.0745 63.6565 11.0745C61.9811 11.0745 60.6262 12.4752 60.6262 14.1871C60.6262 15.899 61.9811 17.2996 63.6565 17.2996ZM63.6565 12.6757C64.4597 12.6757 65.1208 13.3496 65.1208 14.1862C65.1208 15.0228 64.4597 15.6967 63.6565 15.6967C62.8533 15.6967 62.1921 15.0228 62.1921 14.1862C62.1921 13.3496 62.8525 12.6757 63.6565 12.6757Z" fill="#004D61" stroke="#004D61" stroke-width="0.3"/>
<path d="M63.6565 20.3015C61.9811 20.3015 60.6262 21.7021 60.6262 23.414C60.6262 25.1269 61.982 26.5266 63.6565 26.5266C65.3319 26.5266 66.6867 25.1259 66.6867 23.414C66.6867 21.7021 65.3319 20.3015 63.6565 20.3015ZM63.6565 24.9245C62.8533 24.9245 62.1921 24.2506 62.1921 23.414C62.1921 22.5774 62.8533 21.9035 63.6565 21.9035C64.4597 21.9035 65.1208 22.5774 65.1208 23.414C65.1208 24.2506 64.4597 24.9245 63.6565 24.9245Z" fill="#004D61" stroke="#004D61" stroke-width="0.3"/>
<path d="M61.2284 18.8005C61.2284 17.0877 59.8726 15.688 58.1981 15.688C56.5236 15.688 55.1679 17.0886 55.1679 18.8005C55.1679 20.5134 56.5236 21.9131 58.1981 21.9131C59.8735 21.9131 61.2284 20.5125 61.2284 18.8005ZM58.1981 20.311C57.395 20.311 56.7346 19.6372 56.7346 18.8005C56.7346 17.9639 57.3958 17.2901 58.1981 17.2901C59.0013 17.2901 59.6625 17.964 59.6625 18.8005C59.6625 19.6371 59.0013 20.311 58.1981 20.311Z" fill="#004D61" stroke="#004D61" stroke-width="0.3"/>
<path d="M72.4105 18.8005C72.4105 17.0877 71.0548 15.688 69.3802 15.688C67.7057 15.688 66.35 17.0886 66.35 18.8005C66.35 20.5134 67.7057 21.9131 69.3802 21.9131C71.0557 21.9131 72.4105 20.5125 72.4105 18.8005ZM69.3802 20.311C68.5772 20.311 67.9168 19.6372 67.9168 18.8005C67.9168 17.9639 68.578 17.2901 69.3802 17.2901C70.1834 17.2901 70.8446 17.964 70.8446 18.8005C70.8446 19.6371 70.1834 20.311 69.3802 20.311Z" fill="#004D61" stroke="#004D61" stroke-width="0.3"/>
<path d="M40 20.6662C38.4061 20.6662 37.1163 21.9988 37.1163 23.6286C37.1163 25.2593 38.407 26.5911 40 26.5911C41.5938 26.5911 42.8836 25.2584 42.8836 23.6286C42.8836 21.9988 41.5938 20.6662 40 20.6662ZM40 25.094C39.2199 25.094 38.5788 24.4397 38.5788 23.6286C38.5788 22.8176 39.2199 22.1633 40 22.1633C40.78 22.1633 41.4211 22.8176 41.4211 23.6286C41.4211 24.4397 40.78 25.094 40 25.094Z" fill="#004D61" stroke="#004D61" stroke-width="0.25"/>
<path d="M28.4482 25.65C26.0493 25.65 24.0982 27.6012 24.0982 29.9997C24.0982 32.3982 26.0492 34.35 28.4482 34.35C30.8472 34.35 32.7982 32.3988 32.7982 29.9997C32.7982 27.6005 30.8465 25.65 28.4482 25.65ZM28.4482 32.8132C26.8977 32.8132 25.6356 31.551 25.6356 30.0003C25.6356 28.4496 26.8977 27.1874 28.4482 27.1874C29.9988 27.1874 31.2609 28.4496 31.2609 30.0003C31.2609 31.551 29.9988 32.8132 28.4482 32.8132Z" fill="#004D61" stroke="#004D61" stroke-width="0.7"/>
<path d="M51.45 25.65C49.051 25.65 47.1 27.6012 47.1 29.9997C47.1 32.3982 49.051 34.35 51.45 34.35C53.8489 34.35 55.8 32.3988 55.8 29.9997C55.8 27.6005 53.8483 25.65 51.45 25.65ZM51.45 32.8132C49.8994 32.8132 48.6373 31.551 48.6373 30.0003C48.6373 28.4496 49.8994 27.1874 51.45 27.1874C53.0005 27.1874 54.2626 28.4496 54.2626 30.0003C54.2626 31.551 53.0005 32.8132 51.45 32.8132Z" fill="#004D61" stroke="#004D61" stroke-width="0.7"/>
<path d="M16.7458 20.106L16.7458 20.106L16.7439 20.1041C16.4537 19.8045 15.9831 19.7982 15.6848 20.0882L15.6847 20.0881L15.6813 20.0917L14.3493 21.4935C14.2577 21.5832 14.2294 21.69 14.2221 21.7879C14.2186 21.8358 14.2198 21.8839 14.2216 21.9276C14.222 21.9382 14.2224 21.9485 14.2229 21.9585C14.2243 21.9919 14.2256 22.0228 14.2256 22.0546V25.274C14.2256 25.4577 14.2411 25.7071 14.306 25.9148C14.3681 26.1135 14.4984 26.3365 14.7626 26.3365H17.6523C17.9072 26.3365 18.0622 26.1257 18.1472 25.9265C18.2357 25.7188 18.2751 25.4672 18.2751 25.274V22.1367C18.2751 22.1304 18.2751 22.1239 18.2751 22.1174C18.2754 21.9587 18.2757 21.7487 18.1233 21.59L16.7458 20.106ZM16.7583 24.7844H15.7416V22.3791L16.2347 21.7624L16.7583 22.449V24.7844Z" fill="#004D61" stroke="#004D61" stroke-width="0.25"/>
<path d="M15.7491 18.1055L15.7491 18.1055L15.7509 18.1074C16.0411 18.4069 16.5117 18.4133 16.8101 18.1233L16.8102 18.1234L16.8136 18.1198L18.1456 16.7179C18.2372 16.6283 18.2654 16.5215 18.2727 16.4236C18.2763 16.3757 18.275 16.3276 18.2733 16.2838C18.2729 16.2733 18.2724 16.263 18.272 16.253C18.2706 16.2196 18.2692 16.1887 18.2692 16.1569L18.2692 12.9375C18.2692 12.7538 18.2538 12.5044 18.1889 12.2967C18.1267 12.098 17.9965 11.875 17.7323 11.875L14.8426 11.875C14.5876 11.875 14.4327 12.0858 14.3477 12.285C14.2591 12.4927 14.2198 12.7443 14.2198 12.9375L14.2198 16.0748C14.2198 16.0811 14.2198 16.0875 14.2198 16.094C14.2195 16.2528 14.2192 16.4628 14.3715 16.6215L15.7491 18.1055ZM15.7366 13.4271L16.7533 13.4271L16.7533 15.8324L16.2602 16.4491L15.7366 15.7625L15.7366 13.4271Z" fill="#004D61" stroke="#004D61" stroke-width="0.25"/>
<path d="M15.1266 19.7059L15.1266 19.7059L15.1284 19.704C15.4179 19.4073 15.4238 18.9293 15.1439 18.6246L15.144 18.6246L15.1405 18.6211L13.7776 17.251C13.69 17.1564 13.5847 17.1264 13.4873 17.1188C13.4401 17.1151 13.3928 17.1164 13.3502 17.1182C13.3398 17.1186 13.3298 17.1191 13.32 17.1195C13.2876 17.121 13.2579 17.1224 13.2272 17.1224H10.0972C9.91821 17.1224 9.6745 17.1383 9.47128 17.2055C9.27358 17.2709 9.06079 17.4059 9.06079 17.6711V20.6433C9.06079 20.8995 9.26199 21.0591 9.45913 21.148C9.66225 21.2396 9.90817 21.2803 10.0972 21.2803H13.1474C13.1535 21.2803 13.1597 21.2803 13.166 21.2804C13.3205 21.2806 13.5281 21.281 13.6838 21.1228L15.1266 19.7059ZM10.5767 19.7274V18.6744H12.9085L13.5125 19.1854L12.8407 19.7274H10.5767Z" fill="#004D61" stroke="#004D61" stroke-width="0.25"/>
<path d="M17.3919 18.6909L17.3919 18.6908L17.39 18.6927C17.1006 18.9894 17.0947 19.4674 17.3745 19.7721L17.3745 19.7721L17.378 19.7757L18.7408 21.1457C18.8284 21.2404 18.9338 21.2703 19.0311 21.278C19.0784 21.2817 19.1257 21.2803 19.1682 21.2786C19.1786 21.2781 19.1886 21.2777 19.1984 21.2772C19.2308 21.2757 19.2606 21.2744 19.2912 21.2744H22.4212C22.6002 21.2744 22.8439 21.2584 23.0472 21.1912C23.2449 21.1259 23.4576 20.9908 23.4576 20.7256V17.7534C23.4576 17.4973 23.2565 17.3376 23.0593 17.2487C22.8562 17.1571 22.6103 17.1164 22.4212 17.1164H19.371C19.3649 17.1164 19.3587 17.1164 19.3525 17.1164C19.1979 17.1161 18.9904 17.1157 18.8346 17.2739L17.3919 18.6909ZM21.9426 18.6693V19.7223H19.6108L19.0068 19.2114L19.6786 18.6693H21.9426Z" fill="#004D61" stroke="#004D61" stroke-width="0.25"/>
<path d="M35.6439 17.2032V17.1282H35.6393C35.6028 16.7642 35.3033 16.4767 34.9347 16.4767H31.7695C31.3768 16.4767 31.0611 16.8035 31.0611 17.2032V19.1567C31.0611 19.5553 31.3759 19.8832 31.7695 19.8832H34.9355C35.3282 19.8832 35.6439 19.5564 35.6439 19.1567V17.2032ZM34.2271 18.4302H32.4779V17.9288H34.2271V18.4302Z" fill="#004D61" stroke="#004D61" stroke-width="0.15"/>
<path d="M48.5078 17.2032V17.1282H48.5032C48.4666 16.7642 48.1672 16.4767 47.7986 16.4767H44.6334C44.2407 16.4767 43.925 16.8035 43.925 17.2032V19.1567C43.925 19.5553 44.2398 19.8832 44.6334 19.8832H47.7994C48.192 19.8832 48.5078 19.5564 48.5078 19.1567V17.2032ZM47.091 18.4302H45.3418V17.9288H47.091V18.4302Z" fill="#004D61" stroke="#004D61" stroke-width="0.15"/>
<mask id="path-15-outside-1" maskUnits="userSpaceOnUse" x="0.379395" y="0.989136" width="79" height="45" fill="black">
<rect fill="white" x="0.379395" y="0.989136" width="79" height="45"/>
<path d="M78.6147 37.2016L76.046 18.5436C76.0365 18.4757 76.0099 18.4156 75.9824 18.3565C75.8134 14.1237 73.6472 10.4152 70.4159 8.21625C70.4245 6.60963 69.6658 3.37873 66.7126 2.48891C63.441 1.50463 59.2339 2.31324 58.737 2.42006C58.3551 2.45801 56.5039 3.21983 55.7426 5.17338H23.9604C23.2 3.21983 21.3487 2.45801 20.9668 2.42006C20.4708 2.31324 16.2611 1.47992 12.9912 2.46419C9.81661 3.42022 9.51451 7.04041 9.50249 8.22684C6.25235 10.4558 4.08701 14.2217 3.966 18.5022C3.96343 18.5154 3.9557 18.5278 3.95398 18.541L1.38528 37.1999C1.37841 37.2537 1.37756 37.3076 1.3827 37.3605C1.40073 37.5353 1.88134 41.6781 6.93293 43.8382C8.81333 44.6424 10.3659 44.894 11.5734 44.894C13.5182 44.894 14.5678 44.2407 14.6476 44.1887C15.5986 43.5275 20.0159 37.6412 21.7701 35.2772C23.3072 37.3093 25.7069 38.697 28.4189 38.697C32.0184 38.697 35.0883 36.431 36.2898 33.1754H43.6638C44.8653 36.4319 47.9352 38.697 51.5347 38.697C54.2604 38.697 56.6695 37.342 58.2058 35.2931C59.9454 37.6368 64.3988 43.5495 65.3695 44.2249C65.4381 44.269 66.4817 44.9063 68.4214 44.9063C69.628 44.9063 71.1823 44.6495 73.0653 43.8444C78.1177 41.6843 78.5975 37.5388 78.6155 37.3641C78.6224 37.3111 78.6215 37.2555 78.6147 37.2016ZM58.8554 3.7645C58.8924 3.76273 58.9284 3.75832 58.9636 3.75037C59.0056 3.73978 63.2565 2.80494 66.3556 3.7389C68.3561 4.34094 68.9226 6.31567 69.0839 7.43589C67.4207 6.58579 65.5549 6.09498 63.5758 6.09498C60.7135 6.09498 58.0822 7.10486 55.9786 8.78298C56.2902 7.9267 56.6206 6.92565 56.8729 5.91843C57.3827 3.88896 58.8031 3.76803 58.8554 3.7645ZM24.3268 6.47545H55.3762C54.8063 8.42899 54.0519 10.3825 53.8983 10.3825H25.8056C25.6511 10.3834 24.8967 8.42899 24.3268 6.47545ZM13.3474 3.7389C16.4405 2.8067 20.6973 3.74066 20.7403 3.75037C20.7703 3.75743 20.8098 3.76185 20.8407 3.7645C20.9007 3.76891 22.2997 3.88985 22.818 5.8787C22.8172 5.89371 22.8095 5.90607 22.8095 5.92108C22.8095 6.05261 22.8567 6.16825 22.9219 6.27065C23.1322 7.05542 23.3819 7.8243 23.6282 8.5155C21.5848 6.99981 19.0856 6.09586 16.3796 6.09586C14.3816 6.09586 12.4986 6.59462 10.8242 7.45972C10.9709 6.2221 11.4988 4.29592 13.3474 3.7389ZM13.9619 43.0949C13.9396 43.109 11.673 44.4553 7.41869 42.6359C3.37639 40.9083 2.73185 37.8116 2.65118 37.2943L4.61912 22.9963C6.28925 28.0324 10.9246 31.6703 16.3787 31.6703C17.6446 31.6703 18.8839 31.4778 20.0743 31.0956C20.2116 32.1849 20.5446 33.2063 21.0329 34.1243C17.9896 38.2371 14.5412 42.6915 13.9619 43.0949ZM28.4198 37.3031C25.8528 37.3031 23.6179 35.9349 22.3572 33.8595C22.3486 33.8427 22.3374 33.8277 22.328 33.8118C21.6972 32.7543 21.3127 31.5202 21.2732 30.1837C21.2672 29.9727 21.1617 29.7776 20.99 29.6602C20.8853 29.5887 20.7634 29.5525 20.6407 29.5525C20.5635 29.5525 20.4854 29.5675 20.4116 29.5967C19.1293 30.1087 17.7733 30.3682 16.3804 30.3682C10.2234 30.3682 5.21474 25.2164 5.21474 18.8835C5.21474 12.5506 10.2234 7.39881 16.3804 7.39881C22.5374 7.39881 27.5461 12.5506 27.5461 18.8835C27.5461 19.8704 27.4234 20.8521 27.1813 21.8028C27.129 22.0085 27.177 22.2274 27.3109 22.3889C27.4448 22.5514 27.6474 22.6361 27.8525 22.6158C28.0387 22.5982 28.2275 22.5893 28.4198 22.5893C32.3642 22.5893 35.5723 25.89 35.5723 29.9462C35.5723 34.0025 32.3634 37.3031 28.4198 37.3031ZM36.6674 31.8733C36.7799 31.2218 36.8391 30.6348 36.8391 30.038C36.8391 25.3223 33.1547 21.4285 28.5923 21.334C28.739 20.5431 28.8128 19.6286 28.8128 18.8199C28.8128 16.2255 28.0524 14.2896 26.7565 11.6846H53.2014C51.9054 14.2896 51.145 16.2017 51.145 18.797C51.145 19.6056 51.2189 20.4539 51.3656 21.2449C46.8024 21.3393 43.1179 25.3003 43.1179 30.016C43.1179 30.6127 43.1772 31.2209 43.2896 31.8724H36.6674V31.8733ZM51.5355 37.3031C47.5919 37.3031 44.383 34.0025 44.383 29.9462C44.383 25.8891 47.5919 22.5893 51.5355 22.5893C51.7278 22.5893 51.9166 22.5982 52.1028 22.6158C52.3071 22.637 52.5105 22.5514 52.6444 22.3889C52.7783 22.2274 52.8263 22.0085 52.774 21.8028C52.532 20.8521 52.4092 19.8704 52.4092 18.8835C52.4092 12.5506 57.4179 7.39881 63.5749 7.39881C69.7319 7.39881 74.7414 12.5506 74.7414 18.8835C74.7414 25.2164 69.7319 30.3682 63.5749 30.3682C62.182 30.3682 60.826 30.1087 59.5446 29.5967C59.3532 29.5207 59.1378 29.5437 58.9662 29.6602C58.7945 29.7767 58.6889 29.9718 58.6821 30.1837C58.5636 34.1755 55.4242 37.3031 51.5355 37.3031ZM72.5804 42.6368C68.3304 44.4535 66.0638 43.1108 66.0612 43.1108C65.457 42.6906 61.9914 38.2133 58.9421 34.0908C59.4202 33.1815 59.7454 32.1717 59.881 31.0956C61.0706 31.4769 62.3107 31.6703 63.5758 31.6703C69.0633 31.6703 73.7227 27.9909 75.3679 22.908L77.3488 37.2943C77.2664 37.8204 76.6175 40.9101 72.5804 42.6368Z"/>
</mask>
<path d="M78.6147 37.2016L76.046 18.5436C76.0365 18.4757 76.0099 18.4156 75.9824 18.3565C75.8134 14.1237 73.6472 10.4152 70.4159 8.21625C70.4245 6.60963 69.6658 3.37873 66.7126 2.48891C63.441 1.50463 59.2339 2.31324 58.737 2.42006C58.3551 2.45801 56.5039 3.21983 55.7426 5.17338H23.9604C23.2 3.21983 21.3487 2.45801 20.9668 2.42006C20.4708 2.31324 16.2611 1.47992 12.9912 2.46419C9.81661 3.42022 9.51451 7.04041 9.50249 8.22684C6.25235 10.4558 4.08701 14.2217 3.966 18.5022C3.96343 18.5154 3.9557 18.5278 3.95398 18.541L1.38528 37.1999C1.37841 37.2537 1.37756 37.3076 1.3827 37.3605C1.40073 37.5353 1.88134 41.6781 6.93293 43.8382C8.81333 44.6424 10.3659 44.894 11.5734 44.894C13.5182 44.894 14.5678 44.2407 14.6476 44.1887C15.5986 43.5275 20.0159 37.6412 21.7701 35.2772C23.3072 37.3093 25.7069 38.697 28.4189 38.697C32.0184 38.697 35.0883 36.431 36.2898 33.1754H43.6638C44.8653 36.4319 47.9352 38.697 51.5347 38.697C54.2604 38.697 56.6695 37.342 58.2058 35.2931C59.9454 37.6368 64.3988 43.5495 65.3695 44.2249C65.4381 44.269 66.4817 44.9063 68.4214 44.9063C69.628 44.9063 71.1823 44.6495 73.0653 43.8444C78.1177 41.6843 78.5975 37.5388 78.6155 37.3641C78.6224 37.3111 78.6215 37.2555 78.6147 37.2016ZM58.8554 3.7645C58.8924 3.76273 58.9284 3.75832 58.9636 3.75037C59.0056 3.73978 63.2565 2.80494 66.3556 3.7389C68.3561 4.34094 68.9226 6.31567 69.0839 7.43589C67.4207 6.58579 65.5549 6.09498 63.5758 6.09498C60.7135 6.09498 58.0822 7.10486 55.9786 8.78298C56.2902 7.9267 56.6206 6.92565 56.8729 5.91843C57.3827 3.88896 58.8031 3.76803 58.8554 3.7645ZM24.3268 6.47545H55.3762C54.8063 8.42899 54.0519 10.3825 53.8983 10.3825H25.8056C25.6511 10.3834 24.8967 8.42899 24.3268 6.47545ZM13.3474 3.7389C16.4405 2.8067 20.6973 3.74066 20.7403 3.75037C20.7703 3.75743 20.8098 3.76185 20.8407 3.7645C20.9007 3.76891 22.2997 3.88985 22.818 5.8787C22.8172 5.89371 22.8095 5.90607 22.8095 5.92108C22.8095 6.05261 22.8567 6.16825 22.9219 6.27065C23.1322 7.05542 23.3819 7.8243 23.6282 8.5155C21.5848 6.99981 19.0856 6.09586 16.3796 6.09586C14.3816 6.09586 12.4986 6.59462 10.8242 7.45972C10.9709 6.2221 11.4988 4.29592 13.3474 3.7389ZM13.9619 43.0949C13.9396 43.109 11.673 44.4553 7.41869 42.6359C3.37639 40.9083 2.73185 37.8116 2.65118 37.2943L4.61912 22.9963C6.28925 28.0324 10.9246 31.6703 16.3787 31.6703C17.6446 31.6703 18.8839 31.4778 20.0743 31.0956C20.2116 32.1849 20.5446 33.2063 21.0329 34.1243C17.9896 38.2371 14.5412 42.6915 13.9619 43.0949ZM28.4198 37.3031C25.8528 37.3031 23.6179 35.9349 22.3572 33.8595C22.3486 33.8427 22.3374 33.8277 22.328 33.8118C21.6972 32.7543 21.3127 31.5202 21.2732 30.1837C21.2672 29.9727 21.1617 29.7776 20.99 29.6602C20.8853 29.5887 20.7634 29.5525 20.6407 29.5525C20.5635 29.5525 20.4854 29.5675 20.4116 29.5967C19.1293 30.1087 17.7733 30.3682 16.3804 30.3682C10.2234 30.3682 5.21474 25.2164 5.21474 18.8835C5.21474 12.5506 10.2234 7.39881 16.3804 7.39881C22.5374 7.39881 27.5461 12.5506 27.5461 18.8835C27.5461 19.8704 27.4234 20.8521 27.1813 21.8028C27.129 22.0085 27.177 22.2274 27.3109 22.3889C27.4448 22.5514 27.6474 22.6361 27.8525 22.6158C28.0387 22.5982 28.2275 22.5893 28.4198 22.5893C32.3642 22.5893 35.5723 25.89 35.5723 29.9462C35.5723 34.0025 32.3634 37.3031 28.4198 37.3031ZM36.6674 31.8733C36.7799 31.2218 36.8391 30.6348 36.8391 30.038C36.8391 25.3223 33.1547 21.4285 28.5923 21.334C28.739 20.5431 28.8128 19.6286 28.8128 18.8199C28.8128 16.2255 28.0524 14.2896 26.7565 11.6846H53.2014C51.9054 14.2896 51.145 16.2017 51.145 18.797C51.145 19.6056 51.2189 20.4539 51.3656 21.2449C46.8024 21.3393 43.1179 25.3003 43.1179 30.016C43.1179 30.6127 43.1772 31.2209 43.2896 31.8724H36.6674V31.8733ZM51.5355 37.3031C47.5919 37.3031 44.383 34.0025 44.383 29.9462C44.383 25.8891 47.5919 22.5893 51.5355 22.5893C51.7278 22.5893 51.9166 22.5982 52.1028 22.6158C52.3071 22.637 52.5105 22.5514 52.6444 22.3889C52.7783 22.2274 52.8263 22.0085 52.774 21.8028C52.532 20.8521 52.4092 19.8704 52.4092 18.8835C52.4092 12.5506 57.4179 7.39881 63.5749 7.39881C69.7319 7.39881 74.7414 12.5506 74.7414 18.8835C74.7414 25.2164 69.7319 30.3682 63.5749 30.3682C62.182 30.3682 60.826 30.1087 59.5446 29.5967C59.3532 29.5207 59.1378 29.5437 58.9662 29.6602C58.7945 29.7767 58.6889 29.9718 58.6821 30.1837C58.5636 34.1755 55.4242 37.3031 51.5355 37.3031ZM72.5804 42.6368C68.3304 44.4535 66.0638 43.1108 66.0612 43.1108C65.457 42.6906 61.9914 38.2133 58.9421 34.0908C59.4202 33.1815 59.7454 32.1717 59.881 31.0956C61.0706 31.4769 62.3107 31.6703 63.5758 31.6703C69.0633 31.6703 73.7227 27.9909 75.3679 22.908L77.3488 37.2943C77.2664 37.8204 76.6175 40.9101 72.5804 42.6368Z" fill="#004D61"/>
<path d="M78.6147 37.2016L76.046 18.5436C76.0365 18.4757 76.0099 18.4156 75.9824 18.3565C75.8134 14.1237 73.6472 10.4152 70.4159 8.21625C70.4245 6.60963 69.6658 3.37873 66.7126 2.48891C63.441 1.50463 59.2339 2.31324 58.737 2.42006C58.3551 2.45801 56.5039 3.21983 55.7426 5.17338H23.9604C23.2 3.21983 21.3487 2.45801 20.9668 2.42006C20.4708 2.31324 16.2611 1.47992 12.9912 2.46419C9.81661 3.42022 9.51451 7.04041 9.50249 8.22684C6.25235 10.4558 4.08701 14.2217 3.966 18.5022C3.96343 18.5154 3.9557 18.5278 3.95398 18.541L1.38528 37.1999C1.37841 37.2537 1.37756 37.3076 1.3827 37.3605C1.40073 37.5353 1.88134 41.6781 6.93293 43.8382C8.81333 44.6424 10.3659 44.894 11.5734 44.894C13.5182 44.894 14.5678 44.2407 14.6476 44.1887C15.5986 43.5275 20.0159 37.6412 21.7701 35.2772C23.3072 37.3093 25.7069 38.697 28.4189 38.697C32.0184 38.697 35.0883 36.431 36.2898 33.1754H43.6638C44.8653 36.4319 47.9352 38.697 51.5347 38.697C54.2604 38.697 56.6695 37.342 58.2058 35.2931C59.9454 37.6368 64.3988 43.5495 65.3695 44.2249C65.4381 44.269 66.4817 44.9063 68.4214 44.9063C69.628 44.9063 71.1823 44.6495 73.0653 43.8444C78.1177 41.6843 78.5975 37.5388 78.6155 37.3641C78.6224 37.3111 78.6215 37.2555 78.6147 37.2016ZM58.8554 3.7645C58.8924 3.76273 58.9284 3.75832 58.9636 3.75037C59.0056 3.73978 63.2565 2.80494 66.3556 3.7389C68.3561 4.34094 68.9226 6.31567 69.0839 7.43589C67.4207 6.58579 65.5549 6.09498 63.5758 6.09498C60.7135 6.09498 58.0822 7.10486 55.9786 8.78298C56.2902 7.9267 56.6206 6.92565 56.8729 5.91843C57.3827 3.88896 58.8031 3.76803 58.8554 3.7645ZM24.3268 6.47545H55.3762C54.8063 8.42899 54.0519 10.3825 53.8983 10.3825H25.8056C25.6511 10.3834 24.8967 8.42899 24.3268 6.47545ZM13.3474 3.7389C16.4405 2.8067 20.6973 3.74066 20.7403 3.75037C20.7703 3.75743 20.8098 3.76185 20.8407 3.7645C20.9007 3.76891 22.2997 3.88985 22.818 5.8787C22.8172 5.89371 22.8095 5.90607 22.8095 5.92108C22.8095 6.05261 22.8567 6.16825 22.9219 6.27065C23.1322 7.05542 23.3819 7.8243 23.6282 8.5155C21.5848 6.99981 19.0856 6.09586 16.3796 6.09586C14.3816 6.09586 12.4986 6.59462 10.8242 7.45972C10.9709 6.2221 11.4988 4.29592 13.3474 3.7389ZM13.9619 43.0949C13.9396 43.109 11.673 44.4553 7.41869 42.6359C3.37639 40.9083 2.73185 37.8116 2.65118 37.2943L4.61912 22.9963C6.28925 28.0324 10.9246 31.6703 16.3787 31.6703C17.6446 31.6703 18.8839 31.4778 20.0743 31.0956C20.2116 32.1849 20.5446 33.2063 21.0329 34.1243C17.9896 38.2371 14.5412 42.6915 13.9619 43.0949ZM28.4198 37.3031C25.8528 37.3031 23.6179 35.9349 22.3572 33.8595C22.3486 33.8427 22.3374 33.8277 22.328 33.8118C21.6972 32.7543 21.3127 31.5202 21.2732 30.1837C21.2672 29.9727 21.1617 29.7776 20.99 29.6602C20.8853 29.5887 20.7634 29.5525 20.6407 29.5525C20.5635 29.5525 20.4854 29.5675 20.4116 29.5967C19.1293 30.1087 17.7733 30.3682 16.3804 30.3682C10.2234 30.3682 5.21474 25.2164 5.21474 18.8835C5.21474 12.5506 10.2234 7.39881 16.3804 7.39881C22.5374 7.39881 27.5461 12.5506 27.5461 18.8835C27.5461 19.8704 27.4234 20.8521 27.1813 21.8028C27.129 22.0085 27.177 22.2274 27.3109 22.3889C27.4448 22.5514 27.6474 22.6361 27.8525 22.6158C28.0387 22.5982 28.2275 22.5893 28.4198 22.5893C32.3642 22.5893 35.5723 25.89 35.5723 29.9462C35.5723 34.0025 32.3634 37.3031 28.4198 37.3031ZM36.6674 31.8733C36.7799 31.2218 36.8391 30.6348 36.8391 30.038C36.8391 25.3223 33.1547 21.4285 28.5923 21.334C28.739 20.5431 28.8128 19.6286 28.8128 18.8199C28.8128 16.2255 28.0524 14.2896 26.7565 11.6846H53.2014C51.9054 14.2896 51.145 16.2017 51.145 18.797C51.145 19.6056 51.2189 20.4539 51.3656 21.2449C46.8024 21.3393 43.1179 25.3003 43.1179 30.016C43.1179 30.6127 43.1772 31.2209 43.2896 31.8724H36.6674V31.8733ZM51.5355 37.3031C47.5919 37.3031 44.383 34.0025 44.383 29.9462C44.383 25.8891 47.5919 22.5893 51.5355 22.5893C51.7278 22.5893 51.9166 22.5982 52.1028 22.6158C52.3071 22.637 52.5105 22.5514 52.6444 22.3889C52.7783 22.2274 52.8263 22.0085 52.774 21.8028C52.532 20.8521 52.4092 19.8704 52.4092 18.8835C52.4092 12.5506 57.4179 7.39881 63.5749 7.39881C69.7319 7.39881 74.7414 12.5506 74.7414 18.8835C74.7414 25.2164 69.7319 30.3682 63.5749 30.3682C62.182 30.3682 60.826 30.1087 59.5446 29.5967C59.3532 29.5207 59.1378 29.5437 58.9662 29.6602C58.7945 29.7767 58.6889 29.9718 58.6821 30.1837C58.5636 34.1755 55.4242 37.3031 51.5355 37.3031ZM72.5804 42.6368C68.3304 44.4535 66.0638 43.1108 66.0612 43.1108C65.457 42.6906 61.9914 38.2133 58.9421 34.0908C59.4202 33.1815 59.7454 32.1717 59.881 31.0956C61.0706 31.4769 62.3107 31.6703 63.5758 31.6703C69.0633 31.6703 73.7227 27.9909 75.3679 22.908L77.3488 37.2943C77.2664 37.8204 76.6175 40.9101 72.5804 42.6368Z" stroke="#004D61" mask="url(#path-15-outside-1)"/>
</svg>
