<svg xmlns="http://www.w3.org/2000/svg" width="17.262" height="17.262" viewBox="0 0 17.262 17.262">
    <defs>
        <style>
            .cls-1{fill:#ff502f;stroke:#ff502f;stroke-width:.5px}
        </style>
    </defs>
    <path id="github" d="M8.381 0a8.381 8.381 0 1 0 8.381 8.414A8.438 8.438 0 0 0 8.381 0zm1.473 15.632a7.44 7.44 0 0 1-2.946 0v-2.3a1.4 1.4 0 0 1 .344-1.012 10.741 10.741 0 0 0 .609-.894l-.761-.115a3.447 3.447 0 0 1-3.011-2.082 3.34 3.34 0 0 1 .521-3.2.592.592 0 0 0 .118-.57A2.893 2.893 0 0 1 4.7 4.014a4.48 4.48 0 0 1 1.5.717.706.706 0 0 0 .412.1 7.137 7.137 0 0 1 1.778-.255 6.018 6.018 0 0 1 1.64.236.709.709 0 0 0 .53-.079 4.363 4.363 0 0 1 1.5-.717 2.894 2.894 0 0 1-.029 1.444.592.592 0 0 0 .118.57 3.34 3.34 0 0 1 .52 3.2 3.447 3.447 0 0 1-3.015 2.082l-.756.118a10.5 10.5 0 0 0 .609.894 1.4 1.4 0 0 1 .344 1.012zm.982-.285v-2.013a2.355 2.355 0 0 0-.275-1.208 4.2 4.2 0 0 0 3.025-2.554 4.318 4.318 0 0 0-.56-4.027 3.255 3.255 0 0 0-.206-2.2.767.767 0 0 0-.648-.334h-.01a4.3 4.3 0 0 0-2 .815 6.927 6.927 0 0 0-1.788-.236 6.784 6.784 0 0 0-1.758.236 4.339 4.339 0 0 0-2.056-.814.753.753 0 0 0-.619.334 3.257 3.257 0 0 0-.206 2.2 4.322 4.322 0 0 0-.56 4.027A4.2 4.2 0 0 0 6.2 12.126a2.135 2.135 0 0 0-.256.861 1.309 1.309 0 0 1-.806.066 1.087 1.087 0 0 1-.63-.539A2.019 2.019 0 0 0 2.7 11.393l.086.978c.35-.032.7.339.88.644a2.022 2.022 0 0 0 2.262 1.008v1.324a7.4 7.4 0 1 1 4.911 0zm0 0" class="cls-1" transform="translate(.25 .25)"/>
</svg>
